<svg width="59" height="59" viewBox="0 0 59 59" fill="none" xmlns="http://www.w3.org/2000/svg">
<path d="M17 38.5328C17.6259 38.385 18.0576 37.9456 18.6465 37.833C18.9162 37.7814 18.967 37.8794 19.1854 37.8887C19.7745 37.9137 20.171 38.0181 20.8319 37.9602C21.2565 37.923 21.755 37.9056 22.1641 37.8409C22.8667 37.7298 23.431 37.4376 23.8405 37.8727C24.2803 38.3401 24.1632 37.7907 24.6039 37.7614C25.0735 37.7302 25.6908 38.1325 25.981 38.2624C26.5931 38.5364 27.2937 38.874 28.0915 38.9862C29.466 39.1795 30.1385 37.2897 30.5089 36.815C30.6046 36.6924 31.2668 35.9144 31.3546 36.0078C31.9628 36.654 31.8591 37.4997 32.2902 38.1869C32.4643 38.4644 33.5428 37.2609 33.8094 37.145C34.0123 37.0569 34.3269 37.3481 34.5279 37.3956C34.8423 37.4698 35.0644 37.7032 35.3886 37.7415C35.6321 37.7703 35.7702 37.7318 35.9948 37.8171C36.3609 37.956 36.8155 37.8641 37.2222 37.8171C37.8341 37.7464 38.2463 37.7832 38.8463 37.8767C40.234 38.0931 41.6243 38.3044 43 38.5328" stroke="#C80000" stroke-width="2" stroke-linecap="round"/>
<path d="M49.7812 11.0625H9.21875C8.20047 11.0625 7.375 11.888 7.375 12.9062V46.0938C7.375 47.112 8.20047 47.9375 9.21875 47.9375H49.7812C50.7995 47.9375 51.625 47.112 51.625 46.0938V12.9062C51.625 11.888 50.7995 11.0625 49.7812 11.0625Z" stroke="#423737" stroke-width="2" stroke-linecap="round" stroke-linejoin="round"/>
<path d="M17.5156 22.125H41.4844" stroke="#423737" stroke-width="2" stroke-linecap="round" stroke-linejoin="round"/>
<path d="M17.5156 29.5H41.4844" stroke="#423737" stroke-width="2" stroke-linecap="round" stroke-linejoin="round"/>
</svg>
