<svg width="47" height="49" viewBox="0 0 47 49" fill="none" xmlns="http://www.w3.org/2000/svg">
<path d="M14.6875 27.5625C18.7433 27.5625 22.0312 24.1347 22.0312 19.9062C22.0312 15.6778 18.7433 12.25 14.6875 12.25C10.6317 12.25 7.34375 15.6778 7.34375 19.9062C7.34375 24.1347 10.6317 27.5625 14.6875 27.5625Z" stroke="#423737" stroke-width="2" stroke-linecap="round" stroke-linejoin="round"/>
<path d="M27.9062 15.3125H45.5312" stroke="#C80000" stroke-width="2" stroke-linecap="round" stroke-linejoin="round"/>
<path d="M27.9062 24.5H45.5312" stroke="#C80000" stroke-width="2" stroke-linecap="round" stroke-linejoin="round"/>
<path d="M32.3125 33.6875H45.5312" stroke="#C80000" stroke-width="2" stroke-linecap="round" stroke-linejoin="round"/>
<path d="M3.30469 36.75C3.95182 34.115 5.42175 31.7794 7.48272 30.1116C9.5437 28.4437 12.0785 27.5385 14.6875 27.5385C17.2965 27.5385 19.8313 28.4437 21.8923 30.1116C23.9533 31.7794 25.4232 34.115 26.0703 36.75" stroke="#423737" stroke-width="2" stroke-linecap="round" stroke-linejoin="round"/>
</svg>
