<svg width="60" height="60" viewBox="0 0 60 60" fill="none" xmlns="http://www.w3.org/2000/svg">
<path d="M22.4766 14.0625C25.0654 14.0625 27.1641 11.9638 27.1641 9.375C27.1641 6.78617 25.0654 4.6875 22.4766 4.6875C19.8877 4.6875 17.7891 6.78617 17.7891 9.375C17.7891 11.9638 19.8877 14.0625 22.4766 14.0625Z" stroke="#423737" stroke-width="2" stroke-linecap="round" stroke-linejoin="round"/>
<path d="M22.4766 14.0625V30.9375H43.1016L50.6016 45.9375L56.2266 44.0625" stroke="#423737" stroke-width="2" stroke-linecap="round" stroke-linejoin="round"/>
<path d="M39.3286 38.4374C39.1457 41.3582 38.1124 44.1617 36.3559 46.5026C34.5995 48.8434 32.1967 50.6193 29.4435 51.6115C26.6902 52.6037 23.7069 52.7689 20.861 52.0866C18.0151 51.4044 15.431 49.9045 13.4269 47.7719C11.4228 45.6392 10.0864 42.9669 9.58219 40.0841C9.07802 37.2013 9.42813 34.234 10.5894 31.5478C11.7507 28.8615 13.6724 26.5736 16.1178 24.9659C18.5632 23.3583 19.6155 23.0769 21.9232 22.6989H36.3559" stroke="#C80000" stroke-width="2" stroke-linecap="round" stroke-linejoin="round"/>
</svg>
