<svg width="59" height="59" viewBox="0 0 59 59" fill="none" xmlns="http://www.w3.org/2000/svg">
<path d="M18.4375 14.75V9.21875C18.4375 8.72976 18.6318 8.26079 18.9775 7.91502C19.3233 7.56925 19.7923 7.375 20.2812 7.375H38.7188L47.9375 16.5938V42.4062C47.9375 42.8952 47.7432 43.3642 47.3975 43.71C47.0517 44.0557 46.5827 44.25 46.0938 44.25H40.5625" stroke="black" stroke-width="2" stroke-linecap="round" stroke-linejoin="round"/>
<path d="M20.2812 35.0312H31.3438" stroke="#C80000" stroke-width="2" stroke-linecap="round" stroke-linejoin="round"/>
<path d="M20.2812 42.4062H31.3438" stroke="#C80000" stroke-width="2" stroke-linecap="round" stroke-linejoin="round"/>
<path d="M38.7188 51.625H12.9062C12.4173 51.625 11.9483 51.4307 11.6025 51.085C11.2568 50.7392 11.0625 50.2702 11.0625 49.7812V16.5938C11.0625 16.1048 11.2568 15.6358 11.6025 15.29C11.9483 14.9443 12.4173 14.75 12.9062 14.75H31.3438L40.5625 23.9688V49.7812C40.5625 50.2702 40.3682 50.7392 40.0225 51.085C39.6767 51.4307 39.2077 51.625 38.7188 51.625Z" stroke="#C80000" stroke-width="2" stroke-linecap="round" stroke-linejoin="round"/>
<path d="M18.4375 14.75V9.21875C18.4375 8.72976 18.6318 8.26079 18.9775 7.91502C19.3233 7.56925 19.7923 7.375 20.2812 7.375H38.7188L47.9375 16.5938V42.4062C47.9375 42.8952 47.7433 43.3642 47.3975 43.71C47.0517 44.0558 46.5827 44.25 46.0938 44.25H40.5625" stroke="#423737" stroke-width="2" stroke-linecap="round" stroke-linejoin="round"/>
<path d="M20.2812 35.0312H31.3438" stroke="#C80000" stroke-width="2" stroke-linecap="round" stroke-linejoin="round"/>
<path d="M20.2812 42.4062H31.3438" stroke="#C80000" stroke-width="2" stroke-linecap="round" stroke-linejoin="round"/>
<path d="M38.7188 51.625H12.9062C12.4173 51.625 11.9483 51.4307 11.6025 51.085C11.2568 50.7392 11.0625 50.2702 11.0625 49.7812V16.5938C11.0625 16.1048 11.2568 15.6358 11.6025 15.29C11.9483 14.9443 12.4173 14.75 12.9062 14.75H31.3438L40.5625 23.9688V49.7812C40.5625 50.2702 40.3682 50.7392 40.0225 51.085C39.6767 51.4307 39.2077 51.625 38.7188 51.625Z" stroke="#C80000" stroke-width="2" stroke-linecap="round" stroke-linejoin="round"/>
</svg>
