<svg width="60" height="60" viewBox="0 0 60 60" fill="none" xmlns="http://www.w3.org/2000/svg">
<path d="M56.4141 28.5469L50.625 31.4297L43.125 17.086L48.9844 14.1563C49.4198 13.9343 49.9254 13.8935 50.3908 14.0428C50.8562 14.1921 51.2437 14.5193 51.4688 14.9531L57.2344 25.9922C57.3513 26.2132 57.4228 26.4553 57.4448 26.7043C57.4668 26.9534 57.4387 27.2043 57.3623 27.4423C57.2858 27.6803 57.1626 27.9007 56.9997 28.0904C56.8369 28.2801 56.6378 28.4353 56.4141 28.5469V28.5469Z" stroke="#423737" stroke-width="3" stroke-linecap="round" stroke-linejoin="round"/>
<path d="M9.37509 31.1953L3.58603 28.2891C3.36313 28.1798 3.16447 28.0269 3.00186 27.8393C2.83926 27.6518 2.71603 27.4334 2.6395 27.1973C2.56297 26.9611 2.53471 26.712 2.55639 26.4647C2.57808 26.2174 2.64926 25.977 2.76571 25.7578L8.53134 14.7188C8.75688 14.2852 9.14277 13.9569 9.60681 13.8037C10.0708 13.6505 10.5764 13.6845 11.0157 13.8984L16.8751 16.8281L9.37509 31.1953Z" stroke="#423737" stroke-width="3" stroke-linecap="round" stroke-linejoin="round"/>
<path d="M50.625 31.4297L46.875 35.8359L38.25 44.4609C38.0149 44.6808 37.7301 44.8403 37.4199 44.9261C37.1097 45.0118 36.7833 45.0211 36.4688 44.9531L22.875 41.5547C22.6267 41.4855 22.3953 41.3658 22.1953 41.2031L9.375 31.1953" stroke="#423737" stroke-width="3" stroke-linecap="round" stroke-linejoin="round"/>
<path d="M46.8752 35.8359L36.5627 28.3359L33.5627 30.5859C32.263 31.556 30.6845 32.0801 29.0627 32.0801C27.4409 32.0801 25.8624 31.556 24.5627 30.5859L23.2971 29.625C23.0831 29.4623 22.906 29.256 22.7777 29.0197C22.6494 28.7835 22.5728 28.5227 22.5528 28.2546C22.5329 27.9864 22.5701 27.7172 22.6621 27.4645C22.754 27.2119 22.8986 26.9817 23.0861 26.7891L32.2736 17.625C32.4462 17.4533 32.651 17.3173 32.8762 17.2248C33.1014 17.1323 33.3427 17.0851 33.5861 17.0859H43.1252" stroke="#423737" stroke-width="3" stroke-linecap="round" stroke-linejoin="round"/>
<path d="M17.0156 16.8281L29.0391 13.3125C29.4663 13.19 29.9231 13.2232 30.3281 13.4063L38.4375 17.0859" stroke="#423737" stroke-width="3" stroke-linecap="round" stroke-linejoin="round"/>
<path d="M26.25 49.8984L19.1953 48.1172C18.9078 48.0522 18.6416 47.9151 18.4219 47.7188L13.125 43.125" stroke="#C80000" stroke-width="3" stroke-linecap="round" stroke-linejoin="round"/>
</svg>
