<svg width="69" height="59" viewBox="0 0 69 59" fill="none" xmlns="http://www.w3.org/2000/svg">
<path d="M51.0576 38.0273V47.2461" stroke="#423737" stroke-width="2" stroke-linecap="round" stroke-linejoin="round"/>
<path d="M46.803 22.2864C56.5093 23.07 63.8222 26.4118 63.8222 30.4219C63.8222 35.0083 54.3021 38.7188 42.5482 38.7188C37.336 38.7188 32.5494 37.9813 28.853 36.7829" stroke="#423737" stroke-width="2" stroke-linecap="round" stroke-linejoin="round"/>
<path d="M21.2739 36.7137V39.6406C21.2739 44.227 30.7941 47.9375 42.548 47.9375C54.3019 47.9375 63.822 44.227 63.822 39.6406V30.4219" stroke="#423737" stroke-width="2" stroke-linecap="round" stroke-linejoin="round"/>
<path d="M34.0386 36.3077V45.5265" stroke="#423737" stroke-width="2" stroke-linecap="round" stroke-linejoin="round"/>
<path d="M25.5289 27.6562C37.2782 27.6562 46.803 23.9416 46.803 19.3594C46.803 14.7771 37.2782 11.0625 25.5289 11.0625C13.7796 11.0625 4.25488 14.7771 4.25488 19.3594C4.25488 23.9416 13.7796 27.6562 25.5289 27.6562Z" stroke="#C80000" stroke-width="2" stroke-linecap="round" stroke-linejoin="round"/>
<path d="M4.25488 19.3594V28.5781C4.25488 33.1645 13.775 36.875 25.5289 36.875C37.2828 36.875 46.803 33.1645 46.803 28.5781V19.3594" stroke="#C80000" stroke-width="2" stroke-linecap="round" stroke-linejoin="round"/>
<path d="M34.0386 27.2307V35.173" stroke="#C80000" stroke-width="2" stroke-linecap="round" stroke-linejoin="round"/>
<path d="M14.4009 27.2307V35.173" stroke="#C80000" stroke-width="2" stroke-linecap="round" stroke-linejoin="round"/>
</svg>
