<svg width="59" height="59" viewBox="0 0 59 59" fill="none" xmlns="http://www.w3.org/2000/svg">
<path d="M22.125 49.6426H11.0625C10.5735 49.6426 10.1046 49.4484 9.75878 49.1026C9.41301 48.7568 9.21876 48.2879 9.21876 47.7989V37.4969C9.21792 37.2575 9.26431 37.0203 9.35527 36.7988C9.44622 36.5774 9.57997 36.376 9.74884 36.2063L37.4051 8.55004C37.5766 8.37584 37.7811 8.23749 38.0067 8.14306C38.2322 8.04863 38.4743 8 38.7188 8C38.9633 8 39.2053 8.04863 39.4308 8.14306C39.6564 8.23749 39.8609 8.37584 40.0324 8.55004L50.3113 18.8289C50.4855 19.0005 50.6239 19.205 50.7183 19.4305C50.8127 19.6561 50.8614 19.8981 50.8614 20.1426C50.8614 20.3871 50.8127 20.6292 50.7183 20.8547C50.6239 21.0802 50.4855 21.2847 50.3113 21.4563L22.125 49.6426Z" stroke="#423737" stroke-width="2" stroke-linecap="round" stroke-linejoin="round"/>
<path d="M45 14L16 43" stroke="#423737" stroke-width="2" stroke-linecap="round" stroke-linejoin="round"/>
</svg>
