<svg width="64" height="60" viewBox="0 0 64 60" fill="none" xmlns="http://www.w3.org/2000/svg">
<path d="M41.9359 39.375L51.9207 48.75" stroke="#C80000" stroke-width="3" stroke-linecap="round" stroke-linejoin="round"/>
<path d="M25.3862 6.96095L40.9375 21.5625C40.9375 21.5625 47.8519 18.3047 55.2656 23.9297C55.4837 24.0954 55.6622 24.3025 55.7894 24.5374C55.9166 24.7723 55.9897 25.0297 56.0038 25.2928C56.0179 25.556 55.9728 25.819 55.8715 26.0647C55.7701 26.3104 55.6147 26.5332 55.4154 26.7188L28.5064 51.9844C28.305 52.1768 28.0617 52.3262 27.7932 52.4222C27.5247 52.5183 27.2372 52.5588 26.9505 52.541C26.6637 52.5232 26.3844 52.4475 26.1317 52.3191C25.879 52.1907 25.6588 52.0125 25.4861 51.7969C23.3893 49.1953 20.0943 43.8047 22.9649 38.4375L7.41365 23.8359C7.22497 23.6615 7.07513 23.4535 6.97285 23.2242C6.87057 22.9948 6.8179 22.7487 6.8179 22.5C6.8179 22.2514 6.87057 22.0052 6.97285 21.7758C7.07513 21.5465 7.22497 21.3385 7.41365 21.1641L22.5406 6.96095C22.7264 6.78379 22.9479 6.6431 23.1921 6.54707C23.4364 6.45104 23.6986 6.40158 23.9634 6.40158C24.2282 6.40158 24.4904 6.45104 24.7346 6.54707C24.9789 6.6431 25.2004 6.78379 25.3862 6.96095Z" stroke="#423737" stroke-width="3" stroke-linecap="round" stroke-linejoin="round"/>
</svg>
