<svg xmlns="http://www.w3.org/2000/svg" xmlns:xlink="http://www.w3.org/1999/xlink" xml:space="preserve" width="3510px" height="615px" version="1.1" style="shape-rendering:geometricPrecision; text-rendering:geometricPrecision; image-rendering:optimizeQuality; fill-rule:evenodd; clip-rule:evenodd" viewBox="0 0 3510 615">
 <defs>
  <style type="text/css">
   <![CDATA[
    .str0 {stroke:white;stroke-width:22.9996}
    .fil1 {fill:none}
    .fil0 {fill:white;fill-rule:nonzero}
   ]]>
  </style>
 </defs>
 <g id="Camada_x0020_1">
  <metadata id="CorelCorpID_0Corel-Layer"/>
  <path class="fil0" d="M889 159c13,0 28,3 45,7 16,5 27,9 33,14l-16 58c-20,-15 -46,-22 -76,-22 -7,-1 -15,2 -22,7 -10,6 -15,13 -17,23 -3,14 6,26 27,38 24,14 40,26 49,37 14,16 20,36 18,60 -2,28 -15,52 -40,73 -20,17 -45,26 -77,26 -16,0 -34,-3 -52,-9 -8,-2 -19,-6 -34,-11l16 -59c23,13 47,20 73,20 13,0 25,-3 34,-9 12,-7 17,-16 17,-29 0,-18 -9,-32 -26,-42l-33 -18c-7,-5 -12,-8 -15,-11 -13,-14 -19,-28 -19,-43 0,-5 1,-11 2,-17 9,-1 19,-5 28,-13 9,-6 16,-14 21,-23 -11,13 -29,19 -56,19 -5,0 -11,0 -17,-1l11 -40c5,1 9,1 14,1 16,0 29,-3 38,-10 23,-17 47,-26 74,-26zm88 316c-26,-13 -39,-37 -39,-74 0,-19 4,-38 13,-57 10,-20 23,-36 40,-48 17,-12 34,-18 51,-18 10,0 19,2 28,6 26,13 39,37 39,73 0,20 -5,39 -14,57 -10,21 -23,37 -39,49 -17,12 -34,18 -51,18 -10,0 -20,-2 -28,-6zm65 -152c-6,0 -13,4 -21,12 -8,8 -14,18 -20,31 -6,15 -9,28 -9,41 0,18 6,27 16,27 6,0 14,-3 21,-11 8,-8 15,-19 21,-33 5,-13 8,-27 8,-39 0,-19 -5,-28 -16,-28zm346 184c8,0 14,-2 18,-8l12 37c-13,14 -31,22 -56,23 -16,0 -29,-6 -39,-17 -9,-10 -14,-20 -14,-30 0,2 1,-10 4,-35l34 -133c1,-2 1,-3 1,-5 0,-4 -2,-8 -7,-10 -2,-2 -4,-3 -6,-3 -5,0 -11,2 -17,7 -8,7 -13,11 -13,11 -4,4 -7,8 -10,14l-31 119 -58 0 35 -131c0,-2 0,-3 0,-5 0,-4 -2,-8 -6,-10 -2,-2 -4,-3 -7,-3 -5,0 -10,3 -16,7 -10,8 -16,14 -18,16 -5,6 -9,16 -11,28l0 0 -26 98 -58 0 52 -197 57 0 -4 16c17,-10 33,-15 48,-15 5,0 10,0 14,2 12,5 22,13 27,24 22,-19 44,-28 65,-28 6,0 10,0 14,2 23,10 34,27 34,50 0,5 0,9 -1,13l-35 133c0,12 2,20 6,24 2,4 6,5 12,6zm60 -32c-26,-13 -39,-37 -39,-74 0,-19 5,-38 14,-57 10,-20 23,-36 40,-48 16,-12 33,-18 50,-18 10,0 20,2 28,6 27,13 40,37 40,73 0,20 -5,39 -14,57 -10,21 -23,37 -40,49 -16,12 -33,18 -51,18 -10,0 -19,-2 -28,-6zm66 -152c-6,0 -14,4 -21,12 -8,8 -15,18 -20,31 -6,15 -9,28 -9,41 0,18 5,27 16,27 6,0 13,-3 21,-11 8,-8 15,-19 20,-33 6,-13 9,-27 9,-39 0,-19 -6,-28 -16,-28zm219 13c-16,-12 -34,-17 -56,-17 -4,0 -9,1 -14,4 -5,3 -7,7 -7,11 0,5 6,10 18,16 17,9 28,15 33,19 12,10 18,22 18,35 0,24 -8,43 -24,57 -16,15 -36,22 -60,22 -8,0 -19,-2 -34,-5 -16,-4 -26,-7 -31,-11l12 -46c15,9 33,13 55,13 18,0 27,-5 27,-15 0,-8 -5,-15 -16,-21 -11,-6 -22,-12 -33,-18 -11,-8 -17,-19 -17,-32 0,-22 8,-40 25,-54 16,-14 34,-20 56,-20 25,0 45,5 60,15l-12 47zm39 -130c-13,0 -26,6 -37,17l-13 -37c13,-14 32,-21 56,-22 26,0 81,0 166,0l-13 43 -64 0 -70 270 -62 0 71 -270 -34 -1zm119 269c-26,-13 -39,-37 -39,-74 0,-19 4,-38 14,-57 9,-20 22,-36 39,-48 17,-12 34,-18 51,-18 10,0 19,2 28,6 26,13 39,37 39,73 0,20 -5,39 -14,57 -9,21 -23,37 -39,49 -17,12 -34,18 -51,18 -10,0 -19,-2 -28,-6zm65 -152c-6,0 -13,4 -21,12 -8,8 -14,18 -20,31 -6,15 -9,28 -9,41 0,18 6,27 16,27 7,0 14,-3 21,-11 8,-8 15,-19 21,-33 5,-13 8,-27 8,-39 0,-19 -5,-28 -16,-28zm100 153c-22,-10 -33,-32 -33,-67 0,-19 4,-38 12,-57 10,-22 22,-40 38,-53 16,-14 31,-20 47,-20 16,0 28,7 37,20l31 -118 58 0 -78 296 -57 0 3 -13c-14,10 -27,15 -41,15 -6,0 -11,-1 -17,-3zm66 -153c-15,0 -28,14 -38,42 -5,13 -7,25 -7,36 0,20 5,30 16,30 7,0 14,-5 22,-13 8,-9 14,-20 19,-34 4,-11 7,-22 7,-32 0,-19 -7,-29 -19,-29zm136 152c-26,-13 -39,-37 -39,-74 0,-19 4,-38 14,-57 9,-20 23,-36 39,-48 17,-12 34,-18 51,-18 10,0 19,2 28,6 26,13 39,37 39,73 0,20 -4,39 -14,57 -9,21 -23,37 -39,49 -17,12 -34,18 -51,18 -10,0 -19,-2 -28,-6zm65 -152c-6,0 -13,4 -21,12 -8,8 -14,18 -20,31 -6,15 -9,28 -9,41 0,18 6,27 16,27 7,0 14,-3 22,-11 7,-8 14,-19 20,-33 5,-13 8,-27 8,-39 0,-19 -5,-28 -16,-28zm220 13c-16,-12 -35,-17 -56,-17 -5,0 -10,1 -14,4 -5,3 -7,7 -7,11 0,5 6,10 17,16 17,9 28,15 34,19 11,10 17,22 17,35 0,24 -8,43 -23,57 -16,15 -36,22 -60,22 -8,0 -19,-2 -34,-5 -16,-4 -27,-7 -31,-11l11 -46c16,9 34,13 55,13 19,0 28,-5 28,-15 0,-8 -6,-15 -17,-21 -11,-6 -22,-12 -32,-18 -12,-8 -18,-19 -18,-32 0,-22 9,-40 25,-54 16,-14 35,-20 57,-20 24,0 44,5 59,15l-11 47zm77 -172l61 0 -30 115 56 0 30 -115 62 0 -82 313 -61 0 40 -155 -56 0 -40 155 -62 0 66 -253c-10,6 -21,9 -33,9 -5,0 -9,-1 -13,-1l10 -40c4,0 7,1 10,1 19,0 32,-10 42,-29zm201 247c2,12 6,19 12,22 2,1 4,2 6,3 20,1 38,-7 52,-22l-14 56c-12,8 -24,11 -38,11 -11,0 -23,-2 -35,-8 -25,-13 -38,-37 -38,-72 0,-19 4,-37 13,-56 10,-20 24,-36 41,-48 17,-12 34,-18 52,-18 10,0 19,2 27,6 22,7 33,24 33,50 0,5 -1,9 -1,13 -4,17 -15,33 -32,46 -17,13 -36,20 -56,20 -8,0 -15,-1 -22,-3zm3 -36c6,1 11,1 16,1 14,0 25,-3 34,-10 9,-8 14,-16 14,-24 0,-4 -2,-8 -5,-13 -3,-4 -7,-6 -12,-6 -9,0 -19,7 -29,19 -9,11 -14,22 -18,33zm248 -92l-13 54c-7,-4 -14,-6 -20,-6 -15,0 -26,10 -35,30l-31 116 -57 0 52 -197 58 0 -3 13c13,-9 26,-13 37,-13 5,0 9,1 12,3zm34 192c-27,-13 -40,-37 -40,-74 0,-19 5,-38 14,-57 10,-20 23,-36 40,-48 16,-12 33,-18 51,-18 10,0 19,2 27,6 27,13 40,37 40,73 0,20 -5,39 -14,57 -10,21 -23,37 -40,49 -16,12 -33,18 -51,18 -10,0 -19,-2 -27,-6zm65 -152c-6,0 -13,4 -21,12 -8,8 -15,18 -20,31 -6,15 -9,28 -9,41 0,18 5,27 16,27 6,0 13,-3 21,-11 8,-8 15,-19 20,-33 6,-13 9,-27 9,-39 0,-19 -5,-28 -16,-28zm-28 -69l11 -33 83 -25 -13 48 -81 10zm197 25l-52 198 -57 0 52 -198 57 0zm-13 -32c-10,1 -18,-2 -24,-6 -7,-5 -10,-10 -10,-17 0,-7 3,-13 10,-19 6,-5 14,-7 24,-8 9,0 17,2 24,7 7,4 10,10 10,17 0,7 -3,13 -10,18 -7,5 -15,8 -24,8zm159 89c-16,-12 -34,-17 -56,-17 -5,0 -9,1 -14,4 -5,3 -7,7 -7,11 0,5 6,10 18,16 16,9 28,15 33,19 12,10 18,22 18,35 0,24 -8,43 -24,57 -16,15 -36,22 -60,22 -8,0 -19,-2 -34,-5 -16,-4 -26,-7 -31,-11l12 -46c15,9 33,13 55,13 18,0 27,-5 27,-15 0,-8 -5,-15 -16,-21 -11,-6 -22,-12 -33,-18 -11,-8 -17,-19 -17,-32 0,-22 8,-40 25,-54 16,-14 34,-20 56,-20 25,0 45,5 60,15l-12 47z"/>
  <path class="fil1 str0" d="M305 14c162,0 293,132 293,293 0,162 -131,294 -293,294 -161,0 -293,-132 -293,-294 0,-161 132,-293 293,-293z"/>
  <path class="fil0" d="M192 189c10,0 22,2 36,6 12,3 21,7 26,10l-13 46c-16,-12 -36,-18 -59,-18 -6,0 -12,2 -18,6 -8,4 -12,11 -14,18 -2,11 5,21 22,30 19,11 32,20 39,29 10,13 15,28 14,47 -2,22 -12,41 -32,58 -15,13 -35,20 -60,20 -13,0 -27,-3 -41,-7 -6,-2 -15,-5 -27,-9l13 -46c18,10 37,15 57,15 10,0 20,-2 27,-6 9,-6 13,-13 13,-23 0,-14 -7,-25 -21,-33l-25 -15c-6,-3 -10,-6 -12,-8 -10,-11 -15,-22 -15,-34 0,-4 1,-8 2,-13 7,-1 15,-4 22,-10 7,-5 12,-11 16,-18 -8,10 -23,15 -44,15 -4,0 -8,-1 -13,-1l8 -31c4,0 8,0 11,0 13,0 23,-2 30,-8 18,-13 37,-20 58,-20zm67 37c-11,0 -21,4 -30,13l-10 -29c10,-11 25,-17 44,-17 20,0 64,0 131,0l-10 34 -51 0 -55 211 -48 0 55 -212 -26 0zm145 -33l48 0 -23 90 44 0 23 -90 49 0 -65 245 -48 0 32 -121 -44 0 -32 121 -48 0 51 -198c-7,5 -16,7 -26,7 -3,0 -6,-1 -10,-1l8 -31c3,0 6,0 8,0 15,0 25,-7 33,-22z"/>
 </g>
</svg>